<?xml version="1.0" encoding="UTF-8" standalone="no"?>
<svg
   width="128"
   height="64"
   version="1.1"
   viewBox="0 0 128 63.999998"
   id="svg60"
   sodipodi:docname="setting_toi_et_moi.svg"
   inkscape:version="1.2.2 (b0a8486541, 2022-12-01)"
   xmlns:inkscape="http://www.inkscape.org/namespaces/inkscape"
   xmlns:sodipodi="http://sodipodi.sourceforge.net/DTD/sodipodi-0.dtd"
   xmlns="http://www.w3.org/2000/svg"
   xmlns:svg="http://www.w3.org/2000/svg">
  <defs
     id="defs64" />
  <sodipodi:namedview
     id="namedview62"
     pagecolor="#808080"
     bordercolor="#666666"
     borderopacity="1.0"
     inkscape:pageshadow="2"
     inkscape:pageopacity="0"
     inkscape:pagecheckerboard="0"
     showgrid="true"
     inkscape:zoom="6.9826358"
     inkscape:cx="69.744436"
     inkscape:cy="43.536568"
     inkscape:window-width="1493"
     inkscape:window-height="868"
     inkscape:window-x="0"
     inkscape:window-y="0"
     inkscape:window-maximized="1"
     inkscape:current-layer="g58"
     fit-margin-top="4"
     lock-margins="true"
     fit-margin-left="4"
     fit-margin-right="4"
     fit-margin-bottom="4"
     inkscape:showpageshadow="2"
     inkscape:deskcolor="#696969">
    <inkscape:grid
       type="xygrid"
       id="grid2015"
       empspacing="4" />
  </sodipodi:namedview>
  <g
     fill="none"
     stroke="#000000 "
     id="g58"
     transform="translate(4.0865,2.9217115)">
    <path
       d="M 22.178594,21.175933 H 5.17868 c -4.26768957,-0.06505 -7.7619943,3.393321 -7.7619943,7.682292 0,4.288833 3.49430473,7.747271 7.7619943,7.682291 h 16.774749 m 67.471068,0 H 114.7651 c 4.16679,-0.131671 7.51405,-3.495274 7.64517,-7.682291 0.017,-4.249928 -3.41578,-7.699398 -7.64517,-7.682292 H 97.004575"
       id="path2"
       class="band"
       style="stroke-width:1" />
    <path
       d="m 64.399668,21.175933 h -4.753302 m 0,15.364858 h 4.229933"
       id="path4"
       class="band"
       style="stroke-width:1" />
    <g
       transform="matrix(0.9325376,0.39379951,-0.3918959,0.93706734,72.121154,0.46324341)"
       fill="none"
       stroke="#000000 "
       stroke-linejoin="round"
       stroke-width="0.986205"
       data-name="Group 422"
       id="g32">
      <path
         d="M 15.921,48.911 C 11.1666,44.7052 -3.096,22.946 0.928,10.512 3.3047,3.1976 10.8023,0.089 15.921,0.089 c 5.1187,0 12.616,3.1097 14.993,10.423 3.8404,12.434 -10.239,34.376 -14.993,38.399 z m 0,-48.637 -4.3879,5.664"
         fill-rule="evenodd"
         data-name="Path 751"
         id="path6"
         style="stroke-width:0.752883" />
      <path
         d="M 11.533,5.9376 6.0478,3.7431 4.9505,10.8742"
         data-name="Path 752"
         id="path8"
         style="stroke-width:0.986205" />
      <path
         d="m 4.9513,10.879 -4.4699,6.5825 4.2845,7.1311"
         data-name="Path 753"
         id="path10"
         style="stroke-width:0.986205" />
      <path
         d="m 4.7681,24.592 0.73188,9.1424 6.2193,4.7544"
         data-name="Path 754"
         id="path12"
         style="stroke-width:0.986205" />
      <path
         d="m 9.5214,40.866 2.1945,-2.3767"
         data-name="Path 755"
         id="path14"
         style="stroke-width:0.986205" />
      <path
         d="M 15.927,48.911 11.7212,38.488 7.6986,17.831"
         data-name="Path 756"
         id="path16"
         style="stroke-width:0.986205" />
      <path
         d="M 4.767,24.592 7.6923,17.8263 M 4.767,24.592 15.737,36.294 m -4.0226,2.1945 4.2058,-2.1945 M 7.6918,17.826 4.9486,10.6949 m 0,0.18325 L 9.703,10.6949 M 11.531,5.9405 9.703,10.5117 M 7.6917,17.8261 9.703,10.5117 m 1.828,-4.5712 4.3879,2.7432 m -6.2193,1.828 6.0338,-1.828 m 0.18325,-8.4105 4.3879,5.664"
         data-name="Path 757"
         id="path18"
         style="stroke-width:0.986205" />
      <path
         d="m 20.126,5.9376 5.664,-2.1945 0.91402,7.1311"
         data-name="Path 758"
         id="path20"
         style="stroke-width:0.986205" />
      <path
         d="m 26.71,10.879 4.5571,6.6071 -4.3739,7.1065"
         data-name="Path 759"
         id="path22"
         style="stroke-width:0.986205" />
      <path
         d="m 26.893,24.592 -0.73188,9.1424 -6.2193,4.7544"
         data-name="Path 760"
         id="path24"
         style="stroke-width:0.986205" />
      <path
         d="M 22.138,40.866 19.9435,38.4893"
         data-name="Path 761"
         id="path26"
         style="stroke-width:0.986205" />
      <path
         d="M 15.922,48.911 19.9446,38.488 23.9672,17.831"
         data-name="Path 762"
         id="path28"
         style="stroke-width:0.986205" />
      <path
         d="M 26.892,24.592 23.9667,17.8263 M 26.892,24.592 15.92,36.294 m 4.0226,2.1945 -4.2058,-2.1945 m 8.2284,-18.468 2.7432,-7.1311 m 0,0.18325 -4.7544,-0.18325 m -1.828,-4.7544 1.828,4.5712 m 2.0113,7.3144 -2.0113,-7.3144 M 20.126,5.9405 15.7381,8.6837 m 6.2193,1.828 -6.2238,-1.828"
         data-name="Path 763"
         id="path30"
         style="stroke-width:0.986205" />
    </g>
    <g
       transform="matrix(0.83051341,0,0,0.83454758,20.581846,8.673241)"
       fill="none"
       stroke="#000000 "
       stroke-linejoin="round"
       stroke-width="1.20113"
       data-name="Group 419"
       id="g56">
      <path
         d="M 24.187,48.625 A 24.395,24.395 0 1 0 -0.208,24.23 24.43,24.43 0 0 0 24.187,48.625 Z M 30.9096,8.095 33.593,1.7563 m 6.7226,15.751 6.3387,-2.6834 m -6.3387,16.136 6.3387,2.6834 m -15.751,6.9151 2.6834,6.3387 m -16.136,-6.3387 -2.6834,6.3387 M 8.0529,30.9541 1.7142,33.6375 M 8.0529,17.5015 1.7142,14.8181 M 17.4652,8.0955 14.7818,1.7568"
         fill-rule="evenodd"
         data-name="Path 811"
         id="path34"
         style="stroke-width:0.916961" />
      <path
         d="m 17.464,8.0944 6.7226,-8.2603 6.7226,8.2603"
         data-name="Path 812"
         id="path36"
         style="stroke-width:1.20113" />
      <path
         d="M 8.0526,17.506 30.9106,8.0942"
         data-name="Path 813"
         id="path38"
         style="stroke-width:1.20113" />
      <path
         d="M 30.911,8.0944 41.41,7.0173 40.3225,17.5063"
         data-name="Path 814"
         id="path40"
         style="stroke-width:1.20113" />
      <path
         d="m 40.323,17.506 8.2615,6.7202 -8.2603,6.7226"
         data-name="Path 815"
         id="path42"
         style="stroke-width:1.20113" />
      <path
         d="m 40.324,30.953 0.9602,10.565 -10.565,-1.1527"
         data-name="Path 816"
         id="path44"
         style="stroke-width:1.20113" />
      <path
         d="m 30.719,40.36 -6.7226,8.2603 -6.7226,-8.4516"
         data-name="Path 817"
         id="path46"
         style="stroke-width:1.20113" />
      <path
         d="M 17.273,40.173 6.708,41.1332 7.8607,30.5682"
         data-name="Path 818"
         id="path48"
         style="stroke-width:1.20113" />
      <path
         d="M 8.0538,30.76 -0.2053,23.8449 8.0538,17.3113"
         data-name="Path 819"
         id="path50"
         style="stroke-width:1.20113" />
      <path
         d="M 8.0526,17.32 7.28374,6.755 l 10.565,1.1527"
         data-name="Path 820"
         id="path52"
         style="stroke-width:1.20113" />
      <path
         d="m 17.464,8.0886 22.858,9.6043 m -9.4118,-9.6043 9.4118,22.858 m 0,-13.254 -9.8003,22.858 m 9.8003,-9.4118 -23.051,9.217 m 13.446,0 -22.666,-9.8003 m 9.217,9.6043 -9.028,-23.051 m -0.38385,13.446 9.9882,-22.667"
         data-name="Path 821"
         id="path54"
         style="stroke-width:1.20113" />
    </g>
  </g>
</svg>
