<?xml version="1.0" encoding="UTF-8" standalone="no"?>
<svg
   width="128"
   height="64"
   version="1.1"
   viewBox="0 0 128 64.000002"
   id="svg6"
   sodipodi:docname="band_type_accents.svg"
   inkscape:version="1.2.2 (b0a8486541, 2022-12-01)"
   xmlns:inkscape="http://www.inkscape.org/namespaces/inkscape"
   xmlns:sodipodi="http://sodipodi.sourceforge.net/DTD/sodipodi-0.dtd"
   xmlns="http://www.w3.org/2000/svg"
   xmlns:svg="http://www.w3.org/2000/svg">
  <defs
     id="defs10" />
  <sodipodi:namedview
     id="namedview8"
     pagecolor="#8d8d8d"
     bordercolor="#666666"
     borderopacity="1.0"
     inkscape:showpageshadow="2"
     inkscape:pageopacity="0"
     inkscape:pagecheckerboard="0"
     inkscape:deskcolor="#d1d1d1"
     showgrid="true"
     inkscape:zoom="6.2797606"
     inkscape:cx="105.33841"
     inkscape:cy="47.931764"
     inkscape:window-width="1493"
     inkscape:window-height="868"
     inkscape:window-x="0"
     inkscape:window-y="0"
     inkscape:window-maximized="1"
     inkscape:current-layer="svg6">
    <inkscape:grid
       type="xygrid"
       id="grid135"
       empspacing="4" />
  </sodipodi:namedview>
  <circle
     style="display:inline;fill:#000000 ;stroke:#000000 ;stroke-width:0.641351;stroke-linecap:round;stroke-linejoin:round;stroke-miterlimit:4;stroke-dasharray:none;stroke-opacity:1;stop-color:#000000"
     id="path2020"
     cx="14.624812"
     cy="32.017735"
     r="1.3291264" />
  <circle
     style="display:inline;fill:#000000 ;stroke:#000000 ;stroke-width:0.641351;stroke-linecap:round;stroke-linejoin:round;stroke-miterlimit:4;stroke-dasharray:none;stroke-opacity:1;stop-color:#000000"
     id="path2020-5"
     cx="37.788147"
     cy="31.972404"
     r="1.3291264" />
  <circle
     style="display:inline;fill:#000000 ;stroke:#000000 ;stroke-width:0.641351;stroke-linecap:round;stroke-linejoin:round;stroke-miterlimit:4;stroke-dasharray:none;stroke-opacity:1;stop-color:#000000"
     id="path2020-6"
     cx="52.50452"
     cy="32.017735"
     r="1.3291264" />
  <circle
     style="display:inline;fill:#000000 ;stroke:#000000 ;stroke-width:0.641351;stroke-linecap:round;stroke-linejoin:round;stroke-miterlimit:4;stroke-dasharray:none;stroke-opacity:1;stop-color:#000000"
     id="path2020-5-2"
     cx="75.620148"
     cy="31.972404"
     r="1.3291264" />
  <circle
     style="display:inline;fill:#000000 ;stroke:#000000 ;stroke-width:0.641351;stroke-linecap:round;stroke-linejoin:round;stroke-miterlimit:4;stroke-dasharray:none;stroke-opacity:1;stop-color:#000000"
     id="path2020-9"
     cx="90.208298"
     cy="32.017735"
     r="1.3291264" />
  <circle
     style="display:inline;fill:#000000 ;stroke:#000000 ;stroke-width:0.641351;stroke-linecap:round;stroke-linejoin:round;stroke-miterlimit:4;stroke-dasharray:none;stroke-opacity:1;stop-color:#000000"
     id="path2020-5-1"
     cx="113.37162"
     cy="31.972404"
     r="1.3291264" />
  <g
     fill="none"
     stroke="#000000 "
     id="g38"
     transform="matrix(1.4505614,0,0,1.4505614,-2.6486005,3.2242699)"
     style="display:inline;stroke-width:0.689389">
    <path
       d="M 10.397635,19.837318 A 3.7415881,3.7415881 0 1 1 6.6567194,16.095731 3.7933212,3.7933212 0 0 1 10.397635,19.837318 Z"
       fill-rule="evenodd"
       stroke-linejoin="round"
       data-name="Path 597"
       id="path6-6"
       style="stroke:#000000 ;stroke-width:0.689389;stroke-miterlimit:4;stroke-dasharray:none;stroke-opacity:1" />
    <path
       style="fill:none;stroke:#000000 ;stroke-width:0.689389;stroke-linecap:butt;stroke-linejoin:miter;stroke-miterlimit:4;stroke-dasharray:none;stroke-opacity:1"
       d="m 12.751712,19.83765 c 0,0 2.8,-4.2 7,-4.2 4.2,0 7,4.2 7,4.2 0,0 -2.8,4.2 -7,4.2 -4.2,0 -7,-4.2 -7,-4.2 z"
       id="path945"
       sodipodi:nodetypes="cscsc" />
    <path
       d="m 36.592694,19.837318 a 3.7415881,3.7415881 0 1 1 -3.740916,-3.741587 3.7933212,3.7933212 0 0 1 3.740916,3.741587 z"
       fill-rule="evenodd"
       stroke-linejoin="round"
       data-name="Path 597"
       id="path6-6-3"
       style="stroke:#000000 ;stroke-width:0.689389;stroke-miterlimit:4;stroke-dasharray:none;stroke-opacity:1" />
    <path
       d="m 62.787751,19.837318 a 3.7415881,3.7415881 0 1 1 -3.740916,-3.741587 3.7933212,3.7933212 0 0 1 3.740916,3.741587 z"
       fill-rule="evenodd"
       stroke-linejoin="round"
       data-name="Path 597"
       id="path6-6-7"
       style="stroke:#000000 ;stroke-width:0.689389;stroke-miterlimit:4;stroke-dasharray:none;stroke-opacity:1" />
    <path
       style="fill:none;stroke:#fff9f9;stroke-width:0.689389;stroke-linecap:butt;stroke-linejoin:miter;stroke-miterlimit:4;stroke-dasharray:none;stroke-opacity:1"
       d="m 65.141829,19.83765 c 0,0 2.8,-4.2 7,-4.2 4.2,0 7,4.2 7,4.2 0,0 -2.8,4.2 -7,4.2 -4.2,0 -7,-4.2 -7,-4.2 z"
       id="path945-5"
       sodipodi:nodetypes="cscsc" />
    <path
       d="m 88.98281,19.837318 a 3.7415881,3.7415881 0 1 1 -3.740916,-3.741587 3.7933212,3.7933212 0 0 1 3.740916,3.741587 z"
       fill-rule="evenodd"
       stroke-linejoin="round"
       data-name="Path 597"
       id="path6-6-3-3"
       style="stroke-width:0.689389;stroke-miterlimit:4;stroke-dasharray:none" />
    <path
       style="fill:none;stroke:#000000 ;stroke-width:0.689389;stroke-linecap:butt;stroke-linejoin:miter;stroke-miterlimit:4;stroke-dasharray:none;stroke-opacity:1"
       d="m 38.946769,19.83765 c 0,0 2.8,-4.2 7,-4.2 4.2,0 7,4.2 7,4.2 0,0 -2.8,4.2 -7,4.2 -4.2,0 -7,-4.2 -7,-4.2 z"
       id="path945-6"
       sodipodi:nodetypes="cscsc" />
  </g>
</svg>
