<?xml version="1.0" encoding="UTF-8" standalone="no"?>
<svg
   width="128"
   height="64"
   version="1.1"
   viewBox="0 0 128 64.000002"
   id="svg6"
   sodipodi:docname="band_type_template.svg"
   inkscape:version="1.2.2 (b0a8486541, 2022-12-01)"
   xmlns:inkscape="http://www.inkscape.org/namespaces/inkscape"
   xmlns:sodipodi="http://sodipodi.sourceforge.net/DTD/sodipodi-0.dtd"
   xmlns="http://www.w3.org/2000/svg"
   xmlns:svg="http://www.w3.org/2000/svg">
  <defs
     id="defs10" />
  <sodipodi:namedview
     id="namedview8"
     pagecolor="#8d8d8d"
     bordercolor="#666666"
     borderopacity="1.0"
     inkscape:showpageshadow="2"
     inkscape:pageopacity="0"
     inkscape:pagecheckerboard="0"
     inkscape:deskcolor="#d1d1d1"
     showgrid="true"
     inkscape:zoom="3.5313343"
     inkscape:cx="102.65242"
     inkscape:cy="7.6458351"
     inkscape:window-width="1493"
     inkscape:window-height="868"
     inkscape:window-x="0"
     inkscape:window-y="0"
     inkscape:window-maximized="1"
     inkscape:current-layer="svg6">
    <inkscape:grid
       type="xygrid"
       id="grid135"
       empspacing="4" />
  </sodipodi:namedview>
  <path
     d="m 118.85431,39.807533 c 4.16704,-0.133818 7.5145,-3.552256 7.64563,-7.80753 0.017,-4.319213 -3.41598,-7.824918 -7.64563,-7.807532 H 9.2624721 c -4.2679534,-0.06611 -7.7624743,3.44864 -7.7624743,7.807532 0,4.358751 3.4945209,7.87357 7.7624743,7.80753 z"
     id="path2-6"
     sodipodi:nodetypes="ccccscc"
     style="fill:none;stroke:#000000 ;stroke-width:1;stroke-opacity:1" />
  <path
     d="m 30.86699,32.183396 a 5.1373454,5.2461326 0 1 1 -5.136422,-5.246131 5.208377,5.3186683 0 0 1 5.136422,5.246131 z"
     fill-rule="evenodd"
     stroke-linejoin="round"
     data-name="Path 597"
     id="path6"
     style="fill:none;stroke:#000000 ;stroke-width:1;stroke-miterlimit:4;stroke-dasharray:none;stroke-opacity:1" />
  <path
     d="m 15.563889,32.183396 a 5.1373454,5.2461326 0 1 1 -5.136423,-5.246131 5.208377,5.3186683 0 0 1 5.136423,5.246131 z"
     fill-rule="evenodd"
     stroke-linejoin="round"
     data-name="Path 597"
     id="path6-6"
     style="fill:none;stroke:#000000 ;stroke-width:1;stroke-miterlimit:4;stroke-dasharray:none;stroke-opacity:1" />
  <path
     d="m 61.473194,32.183396 a 5.1373454,5.2461326 0 1 1 -5.136423,-5.246131 5.208377,5.3186683 0 0 1 5.136423,5.246131 z"
     fill-rule="evenodd"
     stroke-linejoin="round"
     data-name="Path 597"
     id="path6-7"
     style="fill:none;stroke:#000000 ;stroke-width:1;stroke-miterlimit:4;stroke-dasharray:none;stroke-opacity:1" />
  <path
     d="m 46.17009,32.183396 a 5.1373454,5.2461326 0 1 1 -5.136422,-5.246131 5.208377,5.3186683 0 0 1 5.136422,5.246131 z"
     fill-rule="evenodd"
     stroke-linejoin="round"
     data-name="Path 597"
     id="path6-6-5"
     style="fill:none;stroke:#000000 ;stroke-width:1;stroke-miterlimit:4;stroke-dasharray:none;stroke-opacity:1" />
  <path
     d="m 92.079391,32.183396 a 5.1373454,5.2461326 0 1 1 -5.136428,-5.246131 5.208377,5.3186683 0 0 1 5.136428,5.246131 z"
     fill-rule="evenodd"
     stroke-linejoin="round"
     data-name="Path 597"
     id="path6-3"
     style="fill:none;stroke:#000000 ;stroke-width:1;stroke-miterlimit:4;stroke-dasharray:none;stroke-opacity:1" />
  <path
     d="m 76.776293,32.183396 a 5.1373454,5.2461326 0 1 1 -5.136423,-5.246131 5.208377,5.3186683 0 0 1 5.136423,5.246131 z"
     fill-rule="evenodd"
     stroke-linejoin="round"
     data-name="Path 597"
     id="path6-6-56"
     style="fill:none;stroke:#000000 ;stroke-width:1;stroke-miterlimit:4;stroke-dasharray:none;stroke-opacity:1" />
  <path
     d="m 122.68558,32.183396 a 5.1373454,5.2461326 0 1 1 -5.13641,-5.246131 5.208377,5.3186683 0 0 1 5.13641,5.246131 z"
     fill-rule="evenodd"
     stroke-linejoin="round"
     data-name="Path 597"
     id="path6-7-2"
     style="fill:none;stroke:#000000 ;stroke-width:1;stroke-miterlimit:4;stroke-dasharray:none;stroke-opacity:1" />
  <path
     d="m 107.38248,32.183396 a 5.1373454,5.2461326 0 1 1 -5.13642,-5.246131 5.208377,5.3186683 0 0 1 5.13642,5.246131 z"
     fill-rule="evenodd"
     stroke-linejoin="round"
     data-name="Path 597"
     id="path6-6-5-9"
     style="fill:none;stroke:#000000 ;stroke-width:1;stroke-miterlimit:4;stroke-dasharray:none;stroke-opacity:1" />
</svg>
