<svg xmlns="http://www.w3.org/2000/svg" width="100mm" height="100mm" viewBox="0 0 354.331 354.331" id="diamond"><g color="#000" font-family="sans-serif" font-weight="400"><path style="line-height:normal;text-indent:0;text-align:start;text-decoration-line:none;text-decoration-style:solid;text-decoration-color:#000;text-transform:none;block-progression:tb;white-space:normal;isolation:auto;mix-blend-mode:normal;solid-color:#000;solid-opacity:1" d="M226.016-79.322 93.082 60.285v356.108l1.389 1.462 134.056 141.096L562.96 233.967 226.016-79.323Zm.431 14.19 321.858 299.259-319.49 310.467L103.18 412.36V64.322L226.447-65.133z" overflow="visible" transform="rotate(90 150.218 153.83) scale(.52909)"></path><path style="line-height:normal;text-indent:0;text-align:start;text-decoration-line:none;text-decoration-style:solid;text-decoration-color:#000;text-transform:none;block-progression:tb;white-space:normal;isolation:auto;mix-blend-mode:normal;solid-color:#000;solid-opacity:1" d="m232.68-72.244-10.096.033 2 621 10.096-.033-2-621z" overflow="visible" transform="rotate(90 150.218 153.83) scale(.52909)"></path><path style="line-height:normal;text-indent:0;text-align:start;text-decoration-line:none;text-decoration-style:solid;text-decoration-color:#000;text-transform:none;block-progression:tb;white-space:normal;isolation:auto;mix-blend-mode:normal;solid-color:#000;solid-opacity:1" d="m103.393 56.498-5.467 8.488 128.943 83.059 5.469-8.488-128.945-83.059z" overflow="visible" transform="rotate(90 150.218 153.83) scale(.52909)"></path><path style="line-height:normal;text-indent:0;text-align:start;text-decoration-line:none;text-decoration-style:solid;text-decoration-color:#000;text-transform:none;block-progression:tb;white-space:normal;isolation:auto;mix-blend-mode:normal;solid-color:#000;solid-opacity:1" d="m226.602 134.732-128 96 6.058 8.079 128-96-6.058-8.079z" overflow="visible" transform="rotate(90 150.218 153.83) scale(.52909)"></path><path style="line-height:normal;text-indent:0;text-align:start;text-decoration-line:none;text-decoration-style:solid;text-decoration-color:#000;text-transform:none;block-progression:tb;white-space:normal;isolation:auto;mix-blend-mode:normal;solid-color:#000;solid-opacity:1" d="m103.676 228.744-6.088 8.055 127 96 6.088-8.055-127-96z" overflow="visible" transform="rotate(90 150.218 153.83) scale(.52909)"></path><path style="line-height:normal;text-indent:0;text-align:start;text-decoration-line:none;text-decoration-style:solid;text-decoration-color:#000;text-transform:none;block-progression:tb;white-space:normal;isolation:auto;mix-blend-mode:normal;solid-color:#000;solid-opacity:1" d="m227.912 326.518-133 85 5.438 8.507 133-85-5.438-8.507zm-124.281-96.795v10.097h126v-10.097h-126z" overflow="visible" transform="rotate(90 150.218 153.83) scale(.52909)"></path><path style="line-height:normal;text-indent:0;text-align:start;text-decoration-line:none;text-decoration-style:solid;text-decoration-color:#000;text-transform:none;block-progression:tb;white-space:normal;isolation:auto;mix-blend-mode:normal;solid-color:#000;solid-opacity:1" d="M226.63 229.723v10.097h330v-10.097h-330z" overflow="visible" transform="rotate(90 150.218 153.83) scale(.52909)"></path><path style="line-height:normal;text-indent:0;text-align:start;text-decoration-line:none;text-decoration-style:solid;text-decoration-color:#000;text-transform:none;block-progression:tb;white-space:normal;isolation:auto;mix-blend-mode:normal;solid-color:#000;solid-opacity:1" d="m229.01 135.916-2.758 9.713 324 92 2.758-9.713-324-92z" overflow="visible" transform="rotate(90 150.218 153.83) scale(.52909)"></path><path style="line-height:normal;text-indent:0;text-align:start;text-decoration-line:none;text-decoration-style:solid;text-decoration-color:#000;text-transform:none;block-progression:tb;white-space:normal;isolation:auto;mix-blend-mode:normal;solid-color:#000;solid-opacity:1" d="m551.225 231.924-324 94 2.814 9.697 324-94-2.814-9.697zM102.646 410.03l-2.671 9.737 126.64 34.746 2.672-9.739-126.64-34.744zM224.51 19.016 96.883 56.848l2.87 9.68 127.626-37.83-2.87-9.682z" overflow="visible" transform="rotate(90 150.218 153.83) scale(.52909)"></path><path style="line-height:normal;text-indent:0;text-align:start;text-decoration-line:none;text-decoration-style:solid;text-decoration-color:#000;text-transform:none;block-progression:tb;white-space:normal;isolation:auto;mix-blend-mode:normal;solid-color:#000;solid-opacity:1" d="m228.375 18.533-5.486 8.477 326 211 5.486-8.477-326-211z" overflow="visible" transform="rotate(90 150.218 153.83) scale(.52909)"></path><path style="line-height:normal;text-indent:0;text-align:start;text-decoration-line:none;text-decoration-style:solid;text-decoration-color:#000;text-transform:none;block-progression:tb;white-space:normal;isolation:auto;mix-blend-mode:normal;solid-color:#000;solid-opacity:1" d="m551.838 229.568-328 218 5.588 8.409 328-218-5.588-8.409z" overflow="visible" transform="rotate(90 150.218 153.83) scale(.52909)"></path></g></svg>